<svg xmlns="http://www.w3.org/2000/svg" width="390" height="2400" viewBox="0 0 390 2400">
  <defs>
    <style>
      .box{fill:#f7f7f7;stroke:#9e9e9e;stroke-width:2;stroke-dasharray:6 6}
      .line{stroke:#bdbdbd;stroke-width:2}
      .text{font-family:-apple-system, BlinkMacSystemFont, 'Segoe UI', Roboto, 'Noto Sans SC', 'PingFang SC', 'Hiragino Sans GB', 'Microsoft YaHei', Arial, Helvetica, sans-serif; font-size:12px; fill:#424242}
      .label{font-size:11px; fill:#616161}
    </style>
  </defs>

  <!-- Canvas -->
  <rect x="10" y="10" width="370" height="2380" class="box"/>
  <text x="20" y="36" class="text">前台首页 · 移动端线框图（≤ 480）</text>

  <!-- Header (compact) -->
  <rect x="20" y="50" width="350" height="56" class="box"/>
  <rect x="30" y="66" width="90" height="24" class="box"/>
  <rect x="132" y="66" width="150" height="24" class="box"/>
  <rect x="294" y="66" width="66" height="24" class="box"/>

  <!-- Hero stacked -->
  <rect x="20" y="120" width="350" height="300" class="box"/>
  <rect x="36" y="146" width="310" height="36" class="box"/>
  <rect x="36" y="188" width="260" height="26" class="box"/>
  <rect x="36" y="220" width="230" height="36" class="box"/>
  <rect x="270" y="220" width="76" height="36" class="box"/>
  <rect x="36" y="266" width="130" height="36" class="box"/>
  <rect x="176" y="266" width="170" height="36" class="box"/>

  <!-- Quick Actions (3x2) -->
  <rect x="20" y="440" width="350" height="160" class="box"/>
  <rect x="36" y="466" width="92" height="40" class="box"/>
  <rect x="144" y="466" width="92" height="40" class="box"/>
  <rect x="252" y="466" width="92" height="40" class="box"/>
  <rect x="36" y="514" width="92" height="40" class="box"/>
  <rect x="144" y="514" width="92" height="40" class="box"/>
  <rect x="252" y="514" width="92" height="40" class="box"/>

  <!-- Topic Grid (1xN) -->
  <rect x="20" y="620" width="350" height="420" class="box"/>
  <rect x="36" y="646" width="318" height="88" class="box"/>
  <rect x="36" y="744" width="318" height="88" class="box"/>
  <rect x="36" y="842" width="318" height="88" class="box"/>
  <rect x="36" y="940" width="318" height="88" class="box"/>

  <!-- Timeline (scrollable) -->
  <rect x="20" y="1060" width="350" height="180" class="box"/>
  <line x1="40" y1="1140" x2="350" y2="1140" class="line"/>
  <circle cx="60" cy="1140" r="12" fill="#f7f7f7" stroke="#9e9e9e" stroke-dasharray="6 6"/>
  <circle cx="120" cy="1140" r="12" fill="#f7f7f7" stroke="#9e9e9e" stroke-dasharray="6 6"/>
  <circle cx="180" cy="1140" r="12" fill="#f7f7f7" stroke="#9e9e9e" stroke-dasharray="6 6"/>
  <circle cx="240" cy="1140" r="12" fill="#f7f7f7" stroke="#9e9e9e" stroke-dasharray="6 6"/>
  <circle cx="300" cy="1140" r="12" fill="#f7f7f7" stroke="#9e9e9e" stroke-dasharray="6 6"/>

  <!-- Figures (2 rows) -->
  <rect x="20" y="1260" width="350" height="220" class="box"/>
  <circle cx="90" cy="1330" r="42" fill="#f7f7f7" stroke="#9e9e9e" stroke-dasharray="6 6"/>
  <circle cx="200" cy="1330" r="42" fill="#f7f7f7" stroke="#9e9e9e" stroke-dasharray="6 6"/>
  <circle cx="310" cy="1330" r="42" fill="#f7f7f7" stroke="#9e9e9e" stroke-dasharray="6 6"/>
  <circle cx="90" cy="1408" r="42" fill="#f7f7f7" stroke="#9e9e9e" stroke-dasharray="6 6"/>
  <circle cx="200" cy="1408" r="42" fill="#f7f7f7" stroke="#9e9e9e" stroke-dasharray="6 6"/>
  <circle cx="310" cy="1408" r="42" fill="#f7f7f7" stroke="#9e9e9e" stroke-dasharray="6 6"/>

  <!-- Feed -->
  <rect x="20" y="1500" width="350" height="360" class="box"/>
  <rect x="36" y="1528" width="318" height="56" class="box"/>
  <rect x="36" y="1592" width="318" height="56" class="box"/>
  <rect x="36" y="1656" width="318" height="56" class="box"/>
  <rect x="36" y="1720" width="318" height="56" class="box"/>

  <!-- Map -->
  <rect x="20" y="1880" width="350" height="220" class="box"/>
  <rect x="36" y="1906" width="318" height="174" class="box"/>

  <!-- CTA -->
  <rect x="20" y="2120" width="350" height="110" class="box"/>
  <rect x="36" y="2146" width="232" height="50" class="box"/>
  <rect x="272" y="2146" width="82" height="50" class="box"/>

  <!-- Footer -->
  <rect x="20" y="2250" width="350" height="120" class="box"/>
</svg>

