<svg xmlns="http://www.w3.org/2000/svg" width="834" height="2200" viewBox="0 0 834 2200">
  <defs>
    <style>
      .box{fill:#f7f7f7;stroke:#9e9e9e;stroke-width:2;stroke-dasharray:6 6}
      .line{stroke:#bdbdbd;stroke-width:2}
      .text{font-family:-apple-system, BlinkMacSystemFont, 'Segoe UI', Roboto, 'Noto Sans SC', 'PingFang SC', 'Hiragino Sans GB', 'Microsoft YaHei', Arial, Helvetica, sans-serif; font-size:14px; fill:#424242}
      .title{font-size:18px; font-weight:600}
      .label{font-size:12px; fill:#616161}
    </style>
  </defs>

  <!-- Canvas -->
  <rect x="10" y="10" width="814" height="2180" class="box"/>
  <text x="24" y="40" class="title">前台首页 · 平板线框图（768–1024）</text>

  <!-- Header -->
  <rect x="30" y="60" width="774" height="70" class="box"/>
  <rect x="44" y="82" width="120" height="26" class="box"/>
  <text x="50" y="100" class="label">Logo/标题</text>
  <rect x="176" y="82" width="360" height="26" class="box"/>
  <text x="182" y="100" class="label">导航（折叠为更多/汉堡菜单可选）</text>
  <rect x="548" y="82" width="240" height="26" class="box"/>
  <text x="554" y="100" class="label">搜索</text>

  <!-- Hero -->
  <rect x="30" y="150" width="774" height="250" class="box"/>
  <rect x="50" y="180" width="540" height="36" class="box"/>
  <text x="60" y="205" class="label">H1 价值主张</text>
  <rect x="50" y="222" width="440" height="26" class="box"/>
  <text x="60" y="240" class="label">H2 补充说明</text>
  <rect x="50" y="254" width="480" height="36" class="box"/>
  <rect x="540" y="254" width="90" height="36" class="box"/>
  <rect x="640" y="254" width="150" height="36" class="box"/>

  <!-- Quick Actions (2x3) -->
  <rect x="30" y="420" width="774" height="150" class="box"/>
  <rect x="50" y="450" width="220" height="40" class="box"/>
  <rect x="290" y="450" width="220" height="40" class="box"/>
  <rect x="530" y="450" width="220" height="40" class="box"/>
  <rect x="50" y="500" width="220" height="40" class="box"/>
  <rect x="290" y="500" width="220" height="40" class="box"/>
  <rect x="530" y="500" width="220" height="40" class="box"/>

  <!-- Topic Grid (2x2) -->
  <rect x="30" y="590" width="774" height="300" class="box"/>
  <rect x="50" y="620" width="340" height="120" class="box"/>
  <rect x="444" y="620" width="340" height="120" class="box"/>
  <rect x="50" y="760" width="340" height="120" class="box"/>
  <rect x="444" y="760" width="340" height="120" class="box"/>

  <!-- Timeline -->
  <rect x="30" y="920" width="774" height="170" class="box"/>
  <line x1="70" y1="1000" x2="764" y2="1000" class="line"/>
  <circle cx="120" cy="1000" r="16" fill="#f7f7f7" stroke="#9e9e9e" stroke-dasharray="6 6"/>
  <circle cx="240" cy="1000" r="16" fill="#f7f7f7" stroke="#9e9e9e" stroke-dasharray="6 6"/>
  <circle cx="360" cy="1000" r="16" fill="#f7f7f7" stroke="#9e9e9e" stroke-dasharray="6 6"/>
  <circle cx="480" cy="1000" r="16" fill="#f7f7f7" stroke="#9e9e9e" stroke-dasharray="6 6"/>
  <circle cx="600" cy="1000" r="16" fill="#f7f7f7" stroke="#9e9e9e" stroke-dasharray="6 6"/>
  <circle cx="720" cy="1000" r="16" fill="#f7f7f7" stroke="#9e9e9e" stroke-dasharray="6 6"/>

  <!-- Figures -->
  <rect x="30" y="1120" width="774" height="180" class="box"/>
  <circle cx="140" cy="1210" r="50" fill="#f7f7f7" stroke="#9e9e9e" stroke-dasharray="6 6"/>
  <circle cx="302" cy="1210" r="50" fill="#f7f7f7" stroke="#9e9e9e" stroke-dasharray="6 6"/>
  <circle cx="464" cy="1210" r="50" fill="#f7f7f7" stroke="#9e9e9e" stroke-dasharray="6 6"/>
  <circle cx="626" cy="1210" r="50" fill="#f7f7f7" stroke="#9e9e9e" stroke-dasharray="6 6"/>

  <!-- Feed -->
  <rect x="30" y="1320" width="774" height="300" class="box"/>
  <rect x="50" y="1350" width="734" height="50" class="box"/>
  <rect x="50" y="1410" width="734" height="50" class="box"/>
  <rect x="50" y="1470" width="734" height="50" class="box"/>
  <rect x="50" y="1530" width="734" height="50" class="box"/>

  <!-- Map -->
  <rect x="30" y="1650" width="774" height="220" class="box"/>
  <rect x="50" y="1680" width="734" height="160" class="box"/>

  <!-- CTA -->
  <rect x="30" y="1890" width="774" height="110" class="box"/>
  <rect x="50" y="1920" width="564" height="50" class="box"/>
  <rect x="626" y="1920" width="160" height="50" class="box"/>

  <!-- Footer -->
  <rect x="30" y="2020" width="774" height="160" class="box"/>
</svg>

